<svg width="790" height="790" viewBox="0 0 790 790" fill="none" xmlns="http://www.w3.org/2000/svg">
<g clip-path="url(#clip0_2_651)">
<path d="M2 788L788 2" stroke="white" stroke-opacity="0.64" stroke-width="4" stroke-linecap="round" stroke-linejoin="round" stroke-dasharray="12 8"/>
<path d="M2 2L788 788" stroke="white" stroke-opacity="0.64" stroke-width="4" stroke-linecap="round" stroke-linejoin="round" stroke-dasharray="12 8"/>
<path d="M2 395H788" stroke="white" stroke-opacity="0.64" stroke-width="4" stroke-linecap="round" stroke-linejoin="round" stroke-dasharray="12 8"/>
<mask id="path-5-inside-1_2_651" fill="white">
<path fill-rule="evenodd" clip-rule="evenodd" d="M395 2V788V2Z"/>
</mask>
<path d="M397 2C397 0.89543 396.105 0 395 0C393.895 0 393 0.89543 393 2H397ZM393 788C393 789.105 393.895 790 395 790C396.105 790 397 789.105 397 788H393ZM393 8.04615C393 9.15072 393.895 10.0462 395 10.0462C396.105 10.0462 397 9.15072 397 8.04615H393ZM397 16.1077C397 15.0031 396.105 14.1077 395 14.1077C393.895 14.1077 393 15.0031 393 16.1077H397ZM393 28.2C393 29.3046 393.895 30.2 395 30.2C396.105 30.2 397 29.3046 397 28.2H393ZM397 36.2615C397 35.157 396.105 34.2615 395 34.2615C393.895 34.2615 393 35.157 393 36.2615H397ZM393 48.3538C393 49.4584 393.895 50.3538 395 50.3538C396.105 50.3538 397 49.4584 397 48.3538H393ZM397 56.4154C397 55.3108 396.105 54.4154 395 54.4154C393.895 54.4154 393 55.3108 393 56.4154H397ZM393 68.5077C393 69.6123 393.895 70.5077 395 70.5077C396.105 70.5077 397 69.6123 397 68.5077H393ZM397 76.5692C397 75.4647 396.105 74.5692 395 74.5692C393.895 74.5692 393 75.4647 393 76.5692H397ZM393 88.6615C393 89.7661 393.895 90.6615 395 90.6615C396.105 90.6615 397 89.7661 397 88.6615H393ZM397 96.7231C397 95.6185 396.105 94.7231 395 94.7231C393.895 94.7231 393 95.6185 393 96.7231H397ZM393 108.815C393 109.92 393.895 110.815 395 110.815C396.105 110.815 397 109.92 397 108.815H393ZM397 116.877C397 115.772 396.105 114.877 395 114.877C393.895 114.877 393 115.772 393 116.877H397ZM393 128.969C393 130.074 393.895 130.969 395 130.969C396.105 130.969 397 130.074 397 128.969H393ZM397 137.031C397 135.926 396.105 135.031 395 135.031C393.895 135.031 393 135.926 393 137.031H397ZM393 149.123C393 150.228 393.895 151.123 395 151.123C396.105 151.123 397 150.228 397 149.123H393ZM397 157.185C397 156.08 396.105 155.185 395 155.185C393.895 155.185 393 156.08 393 157.185H397ZM393 169.277C393 170.381 393.895 171.277 395 171.277C396.105 171.277 397 170.381 397 169.277H393ZM397 177.338C397 176.234 396.105 175.338 395 175.338C393.895 175.338 393 176.234 393 177.338H397ZM393 189.431C393 190.535 393.895 191.431 395 191.431C396.105 191.431 397 190.535 397 189.431H393ZM397 197.492C397 196.388 396.105 195.492 395 195.492C393.895 195.492 393 196.388 393 197.492H397ZM393 209.585C393 210.689 393.895 211.585 395 211.585C396.105 211.585 397 210.689 397 209.585H393ZM397 217.646C397 216.542 396.105 215.646 395 215.646C393.895 215.646 393 216.542 393 217.646H397ZM393 229.738C393 230.843 393.895 231.738 395 231.738C396.105 231.738 397 230.843 397 229.738H393ZM397 237.8C397 236.695 396.105 235.8 395 235.8C393.895 235.8 393 236.695 393 237.8H397ZM393 249.892C393 250.997 393.895 251.892 395 251.892C396.105 251.892 397 250.997 397 249.892H393ZM397 257.954C397 256.849 396.105 255.954 395 255.954C393.895 255.954 393 256.849 393 257.954H397ZM393 270.046C393 271.151 393.895 272.046 395 272.046C396.105 272.046 397 271.151 397 270.046H393ZM397 278.108C397 277.003 396.105 276.108 395 276.108C393.895 276.108 393 277.003 393 278.108H397ZM393 290.2C393 291.305 393.895 292.2 395 292.2C396.105 292.2 397 291.305 397 290.2H393ZM397 298.262C397 297.157 396.105 296.262 395 296.262C393.895 296.262 393 297.157 393 298.262H397ZM393 310.354C393 311.458 393.895 312.354 395 312.354C396.105 312.354 397 311.458 397 310.354H393ZM397 318.415C397 317.311 396.105 316.415 395 316.415C393.895 316.415 393 317.311 393 318.415H397ZM393 330.508C393 331.612 393.895 332.508 395 332.508C396.105 332.508 397 331.612 397 330.508H393ZM397 338.569C397 337.465 396.105 336.569 395 336.569C393.895 336.569 393 337.465 393 338.569H397ZM393 350.662C393 351.766 393.895 352.662 395 352.662C396.105 352.662 397 351.766 397 350.662H393ZM397 358.723C397 357.619 396.105 356.723 395 356.723C393.895 356.723 393 357.619 393 358.723H397ZM393 370.815C393 371.92 393.895 372.815 395 372.815C396.105 372.815 397 371.92 397 370.815H393ZM397 378.877C397 377.772 396.105 376.877 395 376.877C393.895 376.877 393 377.772 393 378.877H397ZM393 390.969C393 392.074 393.895 392.969 395 392.969C396.105 392.969 397 392.074 397 390.969H393ZM397 399.031C397 397.926 396.105 397.031 395 397.031C393.895 397.031 393 397.926 393 399.031H397ZM393 411.123C393 412.228 393.895 413.123 395 413.123C396.105 413.123 397 412.228 397 411.123H393ZM397 419.185C397 418.08 396.105 417.185 395 417.185C393.895 417.185 393 418.08 393 419.185H397ZM393 431.277C393 432.382 393.895 433.277 395 433.277C396.105 433.277 397 432.382 397 431.277H393ZM397 439.339C397 438.234 396.105 437.339 395 437.339C393.895 437.339 393 438.234 393 439.339H397ZM393 451.431C393 452.536 393.895 453.431 395 453.431C396.105 453.431 397 452.536 397 451.431H393ZM397 459.492C397 458.388 396.105 457.492 395 457.492C393.895 457.492 393 458.388 393 459.492H397ZM393 471.585C393 472.689 393.895 473.585 395 473.585C396.105 473.585 397 472.689 397 471.585H393ZM397 479.646C397 478.542 396.105 477.646 395 477.646C393.895 477.646 393 478.542 393 479.646H397ZM393 491.739C393 492.843 393.895 493.739 395 493.739C396.105 493.739 397 492.843 397 491.739H393ZM397 499.8C397 498.696 396.105 497.8 395 497.8C393.895 497.8 393 498.696 393 499.8H397ZM393 511.893C393 512.997 393.895 513.893 395 513.893C396.105 513.893 397 512.997 397 511.893H393ZM397 519.954C397 518.85 396.105 517.954 395 517.954C393.895 517.954 393 518.85 393 519.954H397ZM393 532.046C393 533.151 393.895 534.046 395 534.046C396.105 534.046 397 533.151 397 532.046H393ZM397 540.108C397 539.003 396.105 538.108 395 538.108C393.895 538.108 393 539.003 393 540.108H397ZM393 552.2C393 553.305 393.895 554.2 395 554.2C396.105 554.2 397 553.305 397 552.2H393ZM397 560.262C397 559.157 396.105 558.262 395 558.262C393.895 558.262 393 559.157 393 560.262H397ZM393 572.354C393 573.459 393.895 574.354 395 574.354C396.105 574.354 397 573.459 397 572.354H393ZM397 580.416C397 579.311 396.105 578.416 395 578.416C393.895 578.416 393 579.311 393 580.416H397ZM393 592.508C393 593.612 393.895 594.508 395 594.508C396.105 594.508 397 593.612 397 592.508H393ZM397 600.569C397 599.465 396.105 598.569 395 598.569C393.895 598.569 393 599.465 393 600.569H397ZM393 612.662C393 613.766 393.895 614.662 395 614.662C396.105 614.662 397 613.766 397 612.662H393ZM397 620.723C397 619.619 396.105 618.723 395 618.723C393.895 618.723 393 619.619 393 620.723H397ZM393 632.815C393 633.92 393.895 634.815 395 634.815C396.105 634.815 397 633.92 397 632.815H393ZM397 640.877C397 639.772 396.105 638.877 395 638.877C393.895 638.877 393 639.772 393 640.877H397ZM393 652.969C393 654.074 393.895 654.969 395 654.969C396.105 654.969 397 654.074 397 652.969H393ZM397 661.031C397 659.926 396.105 659.031 395 659.031C393.895 659.031 393 659.926 393 661.031H397ZM393 673.123C393 674.228 393.895 675.123 395 675.123C396.105 675.123 397 674.228 397 673.123H393ZM397 681.185C397 680.08 396.105 679.185 395 679.185C393.895 679.185 393 680.08 393 681.185H397ZM393 693.277C393 694.381 393.895 695.277 395 695.277C396.105 695.277 397 694.381 397 693.277H393ZM397 701.338C397 700.234 396.105 699.338 395 699.338C393.895 699.338 393 700.234 393 701.338H397ZM393 713.431C393 714.535 393.895 715.431 395 715.431C396.105 715.431 397 714.535 397 713.431H393ZM397 721.492C397 720.388 396.105 719.492 395 719.492C393.895 719.492 393 720.388 393 721.492H397ZM393 733.584C393 734.689 393.895 735.584 395 735.584C396.105 735.584 397 734.689 397 733.584H393ZM397 741.646C397 740.541 396.105 739.646 395 739.646C393.895 739.646 393 740.541 393 741.646H397ZM393 753.738C393 754.843 393.895 755.738 395 755.738C396.105 755.738 397 754.843 397 753.738H393ZM397 761.8C397 760.695 396.105 759.8 395 759.8C393.895 759.8 393 760.695 393 761.8H397ZM393 773.892C393 774.997 393.895 775.892 395 775.892C396.105 775.892 397 774.997 397 773.892H393ZM397 781.954C397 780.849 396.105 779.954 395 779.954C393.895 779.954 393 780.849 393 781.954H397ZM395 2H393V8.04615H395H397V2H395ZM395 16.1077H393V28.2H395H397V16.1077H395ZM395 36.2615H393V48.3538H395H397V36.2615H395ZM395 56.4154H393V68.5077H395H397V56.4154H395ZM395 76.5692H393V88.6615H395H397V76.5692H395ZM395 96.7231H393V108.815H395H397V96.7231H395ZM395 116.877H393V128.969H395H397V116.877H395ZM395 137.031H393V149.123H395H397V137.031H395ZM395 157.185H393V169.277H395H397V157.185H395ZM395 177.338H393V189.431H395H397V177.338H395ZM395 197.492H393V209.585H395H397V197.492H395ZM395 217.646H393V229.738H395H397V217.646H395ZM395 237.8H393V249.892H395H397V237.8H395ZM395 257.954H393V270.046H395H397V257.954H395ZM395 278.108H393V290.2H395H397V278.108H395ZM395 298.262H393V310.354H395H397V298.262H395ZM395 318.415H393V330.508H395H397V318.415H395ZM395 338.569H393V350.662H395H397V338.569H395ZM395 358.723H393V370.815H395H397V358.723H395ZM395 378.877H393V390.969H395H397V378.877H395ZM395 399.031H393V411.123H395H397V399.031H395ZM395 419.185H393V431.277H395H397V419.185H395ZM395 439.339H393V451.431H395H397V439.339H395ZM395 459.492H393V471.585H395H397V459.492H395ZM395 479.646H393V491.739H395H397V479.646H395ZM395 499.8H393V511.893H395H397V499.8H395ZM395 519.954H393V532.046H395H397V519.954H395ZM395 540.108H393V552.2H395H397V540.108H395ZM395 560.262H393V572.354H395H397V560.262H395ZM395 580.416H393V592.508H395H397V580.416H395ZM395 600.569H393V612.662H395H397V600.569H395ZM395 620.723H393V632.815H395H397V620.723H395ZM395 640.877H393V652.969H395H397V640.877H395ZM395 661.031H393V673.123H395H397V661.031H395ZM395 681.185H393V693.277H395H397V681.185H395ZM395 701.338H393V713.431H395H397V701.338H395ZM395 721.492H393V733.584H395H397V721.492H395ZM395 741.646H393V753.738H395H397V741.646H395ZM395 761.8H393V773.892H395H397V761.8H395ZM395 781.954H393V788H395H397V781.954H395ZM399 2C399 -0.209139 397.209 -2 395 -2C392.791 -2 391 -0.209139 391 2H399ZM391 788C391 790.209 392.791 792 395 792C397.209 792 399 790.209 399 788H391ZM391 8.04615C391 10.2553 392.791 12.0462 395 12.0462C397.209 12.0462 399 10.2553 399 8.04615H391ZM399 16.1077C399 13.8986 397.209 12.1077 395 12.1077C392.791 12.1077 391 13.8986 391 16.1077H399ZM391 28.2C391 30.4091 392.791 32.2 395 32.2C397.209 32.2 399 30.4091 399 28.2H391ZM399 36.2615C399 34.0524 397.209 32.2615 395 32.2615C392.791 32.2615 391 34.0524 391 36.2615H399ZM391 48.3538C391 50.563 392.791 52.3538 395 52.3538C397.209 52.3538 399 50.563 399 48.3538H391ZM399 56.4154C399 54.2062 397.209 52.4154 395 52.4154C392.791 52.4154 391 54.2062 391 56.4154H399ZM391 68.5077C391 70.7168 392.791 72.5077 395 72.5077C397.209 72.5077 399 70.7168 399 68.5077H391ZM399 76.5692C399 74.3601 397.209 72.5692 395 72.5692C392.791 72.5692 391 74.3601 391 76.5692H399ZM391 88.6615C391 90.8707 392.791 92.6615 395 92.6615C397.209 92.6615 399 90.8707 399 88.6615H391ZM399 96.7231C399 94.5139 397.209 92.7231 395 92.7231C392.791 92.7231 391 94.5139 391 96.7231H399ZM391 108.815C391 111.025 392.791 112.815 395 112.815C397.209 112.815 399 111.025 399 108.815H391ZM399 116.877C399 114.668 397.209 112.877 395 112.877C392.791 112.877 391 114.668 391 116.877H399ZM391 128.969C391 131.178 392.791 132.969 395 132.969C397.209 132.969 399 131.178 399 128.969H391ZM399 137.031C399 134.822 397.209 133.031 395 133.031C392.791 133.031 391 134.822 391 137.031H399ZM391 149.123C391 151.332 392.791 153.123 395 153.123C397.209 153.123 399 151.332 399 149.123H391ZM399 157.185C399 154.975 397.209 153.185 395 153.185C392.791 153.185 391 154.975 391 157.185H399ZM391 169.277C391 171.486 392.791 173.277 395 173.277C397.209 173.277 399 171.486 399 169.277H391ZM399 177.338C399 175.129 397.209 173.338 395 173.338C392.791 173.338 391 175.129 391 177.338H399ZM391 189.431C391 191.64 392.791 193.431 395 193.431C397.209 193.431 399 191.64 399 189.431H391ZM399 197.492C399 195.283 397.209 193.492 395 193.492C392.791 193.492 391 195.283 391 197.492H399ZM391 209.585C391 211.794 392.791 213.585 395 213.585C397.209 213.585 399 211.794 399 209.585H391ZM399 217.646C399 215.437 397.209 213.646 395 213.646C392.791 213.646 391 215.437 391 217.646H399ZM391 229.738C391 231.948 392.791 233.738 395 233.738C397.209 233.738 399 231.948 399 229.738H391ZM399 237.8C399 235.591 397.209 233.8 395 233.8C392.791 233.8 391 235.591 391 237.8H399ZM391 249.892C391 252.101 392.791 253.892 395 253.892C397.209 253.892 399 252.101 399 249.892H391ZM399 257.954C399 255.745 397.209 253.954 395 253.954C392.791 253.954 391 255.745 391 257.954H399ZM391 270.046C391 272.255 392.791 274.046 395 274.046C397.209 274.046 399 272.255 399 270.046H391ZM399 278.108C399 275.899 397.209 274.108 395 274.108C392.791 274.108 391 275.899 391 278.108H399ZM391 290.2C391 292.409 392.791 294.2 395 294.2C397.209 294.2 399 292.409 399 290.2H391ZM399 298.262C399 296.052 397.209 294.262 395 294.262C392.791 294.262 391 296.052 391 298.262H399ZM391 310.354C391 312.563 392.791 314.354 395 314.354C397.209 314.354 399 312.563 399 310.354H391ZM399 318.415C399 316.206 397.209 314.415 395 314.415C392.791 314.415 391 316.206 391 318.415H399ZM391 330.508C391 332.717 392.791 334.508 395 334.508C397.209 334.508 399 332.717 399 330.508H391ZM399 338.569C399 336.36 397.209 334.569 395 334.569C392.791 334.569 391 336.36 391 338.569H399ZM391 350.662C391 352.871 392.791 354.662 395 354.662C397.209 354.662 399 352.871 399 350.662H391ZM399 358.723C399 356.514 397.209 354.723 395 354.723C392.791 354.723 391 356.514 391 358.723H399ZM391 370.815C391 373.025 392.791 374.815 395 374.815C397.209 374.815 399 373.025 399 370.815H391ZM399 378.877C399 376.668 397.209 374.877 395 374.877C392.791 374.877 391 376.668 391 378.877H399ZM391 390.969C391 393.178 392.791 394.969 395 394.969C397.209 394.969 399 393.178 399 390.969H391ZM399 399.031C399 396.822 397.209 395.031 395 395.031C392.791 395.031 391 396.822 391 399.031H399ZM391 411.123C391 413.332 392.791 415.123 395 415.123C397.209 415.123 399 413.332 399 411.123H391ZM399 419.185C399 416.976 397.209 415.185 395 415.185C392.791 415.185 391 416.976 391 419.185H399ZM391 431.277C391 433.486 392.791 435.277 395 435.277C397.209 435.277 399 433.486 399 431.277H391ZM399 439.339C399 437.13 397.209 435.339 395 435.339C392.791 435.339 391 437.13 391 439.339H399ZM391 451.431C391 453.64 392.791 455.431 395 455.431C397.209 455.431 399 453.64 399 451.431H391ZM399 459.492C399 457.283 397.209 455.492 395 455.492C392.791 455.492 391 457.283 391 459.492H399ZM391 471.585C391 473.794 392.791 475.585 395 475.585C397.209 475.585 399 473.794 399 471.585H391ZM399 479.646C399 477.437 397.209 475.646 395 475.646C392.791 475.646 391 477.437 391 479.646H399ZM391 491.739C391 493.948 392.791 495.739 395 495.739C397.209 495.739 399 493.948 399 491.739H391ZM399 499.8C399 497.591 397.209 495.8 395 495.8C392.791 495.8 391 497.591 391 499.8H399ZM391 511.893C391 514.102 392.791 515.893 395 515.893C397.209 515.893 399 514.102 399 511.893H391ZM399 519.954C399 517.745 397.209 515.954 395 515.954C392.791 515.954 391 517.745 391 519.954H399ZM391 532.046C391 534.255 392.791 536.046 395 536.046C397.209 536.046 399 534.255 399 532.046H391ZM399 540.108C399 537.899 397.209 536.108 395 536.108C392.791 536.108 391 537.899 391 540.108H399ZM391 552.2C391 554.409 392.791 556.2 395 556.2C397.209 556.2 399 554.409 399 552.2H391ZM399 560.262C399 558.053 397.209 556.262 395 556.262C392.791 556.262 391 558.053 391 560.262H399ZM391 572.354C391 574.563 392.791 576.354 395 576.354C397.209 576.354 399 574.563 399 572.354H391ZM399 580.416C399 578.206 397.209 576.416 395 576.416C392.791 576.416 391 578.206 391 580.416H399ZM391 592.508C391 594.717 392.791 596.508 395 596.508C397.209 596.508 399 594.717 399 592.508H391ZM399 600.569C399 598.36 397.209 596.569 395 596.569C392.791 596.569 391 598.36 391 600.569H399ZM391 612.662C391 614.871 392.791 616.662 395 616.662C397.209 616.662 399 614.871 399 612.662H391ZM399 620.723C399 618.514 397.209 616.723 395 616.723C392.791 616.723 391 618.514 391 620.723H399ZM391 632.815C391 635.025 392.791 636.815 395 636.815C397.209 636.815 399 635.025 399 632.815H391ZM399 640.877C399 638.668 397.209 636.877 395 636.877C392.791 636.877 391 638.668 391 640.877H399ZM391 652.969C391 655.178 392.791 656.969 395 656.969C397.209 656.969 399 655.178 399 652.969H391ZM399 661.031C399 658.822 397.209 657.031 395 657.031C392.791 657.031 391 658.822 391 661.031H399ZM391 673.123C391 675.332 392.791 677.123 395 677.123C397.209 677.123 399 675.332 399 673.123H391ZM399 681.185C399 678.975 397.209 677.185 395 677.185C392.791 677.185 391 678.975 391 681.185H399ZM391 693.277C391 695.486 392.791 697.277 395 697.277C397.209 697.277 399 695.486 399 693.277H391ZM399 701.338C399 699.129 397.209 697.338 395 697.338C392.791 697.338 391 699.129 391 701.338H399ZM391 713.431C391 715.64 392.791 717.431 395 717.431C397.209 717.431 399 715.64 399 713.431H391ZM399 721.492C399 719.283 397.209 717.492 395 717.492C392.791 717.492 391 719.283 391 721.492H399ZM391 733.584C391 735.794 392.791 737.584 395 737.584C397.209 737.584 399 735.794 399 733.584H391ZM399 741.646C399 739.437 397.209 737.646 395 737.646C392.791 737.646 391 739.437 391 741.646H399ZM391 753.738C391 755.947 392.791 757.738 395 757.738C397.209 757.738 399 755.947 399 753.738H391ZM399 761.8C399 759.591 397.209 757.8 395 757.8C392.791 757.8 391 759.591 391 761.8H399ZM391 773.892C391 776.101 392.791 777.892 395 777.892C397.209 777.892 399 776.101 399 773.892H391ZM399 781.954C399 779.745 397.209 777.954 395 777.954C392.791 777.954 391 779.745 391 781.954H399ZM395 2H391V8.04615H395H399V2H395ZM395 16.1077H391V28.2H395H399V16.1077H395ZM395 36.2615H391V48.3538H395H399V36.2615H395ZM395 56.4154H391V68.5077H395H399V56.4154H395ZM395 76.5692H391V88.6615H395H399V76.5692H395ZM395 96.7231H391V108.815H395H399V96.7231H395ZM395 116.877H391V128.969H395H399V116.877H395ZM395 137.031H391V149.123H395H399V137.031H395ZM395 157.185H391V169.277H395H399V157.185H395ZM395 177.338H391V189.431H395H399V177.338H395ZM395 197.492H391V209.585H395H399V197.492H395ZM395 217.646H391V229.738H395H399V217.646H395ZM395 237.8H391V249.892H395H399V237.8H395ZM395 257.954H391V270.046H395H399V257.954H395ZM395 278.108H391V290.2H395H399V278.108H395ZM395 298.262H391V310.354H395H399V298.262H395ZM395 318.415H391V330.508H395H399V318.415H395ZM395 338.569H391V350.662H395H399V338.569H395ZM395 358.723H391V370.815H395H399V358.723H395ZM395 378.877H391V390.969H395H399V378.877H395ZM395 399.031H391V411.123H395H399V399.031H395ZM395 419.185H391V431.277H395H399V419.185H395ZM395 439.339H391V451.431H395H399V439.339H395ZM395 459.492H391V471.585H395H399V459.492H395ZM395 479.646H391V491.739H395H399V479.646H395ZM395 499.8H391V511.893H395H399V499.8H395ZM395 519.954H391V532.046H395H399V519.954H395ZM395 540.108H391V552.2H395H399V540.108H395ZM395 560.262H391V572.354H395H399V560.262H395ZM395 580.416H391V592.508H395H399V580.416H395ZM395 600.569H391V612.662H395H399V600.569H395ZM395 620.723H391V632.815H395H399V620.723H395ZM395 640.877H391V652.969H395H399V640.877H395ZM395 661.031H391V673.123H395H399V661.031H395ZM395 681.185H391V693.277H395H399V681.185H395ZM395 701.338H391V713.431H395H399V701.338H395ZM395 721.492H391V733.584H395H399V721.492H395ZM395 741.646H391V753.738H395H399V741.646H395ZM395 761.8H391V773.892H395H399V761.8H395ZM395 781.954H391V788H395H399V781.954H395Z" fill="white" fill-opacity="0.64" mask="url(#path-5-inside-1_2_651)"/>
<path d="M51.125 2V788" stroke="white" stroke-opacity="0.64" stroke-width="4" stroke-linecap="round" stroke-linejoin="round" stroke-dasharray="12 8"/>
<path d="M2 738.491H788" stroke="white" stroke-opacity="0.64" stroke-width="4" stroke-linecap="round" stroke-linejoin="round" stroke-dasharray="12 8"/>
<path d="M738.875 2V788" stroke="white" stroke-opacity="0.64" stroke-width="4" stroke-linecap="round" stroke-linejoin="round" stroke-dasharray="12 8"/>
<path d="M2 51.125H788" stroke="white" stroke-opacity="0.64" stroke-width="4" stroke-linecap="round" stroke-linejoin="round" stroke-dasharray="12 8"/>
<path d="M402.791 247.828C404.032 247.893 405.269 247.972 406.501 248.067C406.409 249.162 407.217 250.127 408.312 250.227C412.131 250.573 415.907 251.067 419.634 251.703C420.717 251.888 421.745 251.164 421.938 250.084C423.16 250.31 424.376 250.55 425.586 250.806C425.353 251.878 426.028 252.939 427.101 253.181C430.831 254.021 434.507 255.005 438.123 256.127C439.174 256.453 440.288 255.868 440.62 254.821C441.801 255.205 442.974 255.605 444.142 256.018C443.769 257.05 444.299 258.192 445.331 258.573C448.915 259.896 452.432 261.356 455.877 262.946C456.875 263.407 458.056 262.975 458.523 261.982C459.643 262.518 460.754 263.066 461.857 263.629C461.353 264.604 461.728 265.804 462.7 266.317C466.074 268.096 469.371 270.004 472.582 272.034C473.511 272.622 474.737 272.348 475.331 271.426C476.37 272.103 477.401 272.792 478.422 273.494C477.795 274.395 478.01 275.634 478.907 276.27C482.017 278.471 485.037 280.791 487.959 283.225C488.804 283.928 490.056 283.817 490.765 282.979C491.707 283.785 492.638 284.602 493.56 285.432C492.82 286.243 492.874 287.5 493.681 288.246C496.475 290.831 499.168 293.525 501.753 296.319C502.499 297.126 503.756 297.179 504.567 296.439C505.397 297.361 506.214 298.292 507.021 299.234C506.182 299.943 506.071 301.196 506.774 302.041C509.208 304.964 511.529 307.983 513.73 311.093C514.366 311.99 515.604 312.204 516.505 311.577C517.207 312.598 517.896 313.629 518.573 314.668C517.651 315.262 517.378 316.489 517.966 317.418C519.996 320.629 521.904 323.926 523.683 327.3C524.196 328.272 525.396 328.646 526.37 328.142C526.933 329.245 527.481 330.356 528.017 331.476C527.024 331.943 526.593 333.125 527.054 334.123C528.644 337.568 530.104 341.085 531.427 344.669C531.807 345.701 532.949 346.23 533.981 345.857C534.394 347.025 534.794 348.198 535.178 349.379C534.131 349.711 533.547 350.826 533.873 351.877C534.995 355.493 535.979 359.169 536.819 362.899C537.061 363.971 538.121 364.645 539.193 364.413C539.449 365.624 539.689 366.839 539.915 368.061C538.835 368.254 538.112 369.283 538.297 370.366C538.933 374.093 539.427 377.869 539.773 381.688C539.873 382.782 540.838 383.589 541.932 383.498C542.027 384.731 542.106 385.967 542.171 387.208C541.074 387.258 540.222 388.184 540.265 389.283C540.338 391.18 540.375 393.085 540.375 395C540.375 396.915 540.338 398.82 540.265 400.717C540.222 401.816 541.074 402.741 542.171 402.791C542.106 404.032 542.027 405.269 541.932 406.501C540.838 406.41 539.873 407.218 539.773 408.312C539.47 411.654 539.054 414.963 538.528 418.234L538.297 419.634C538.112 420.717 538.836 421.745 539.915 421.938C539.689 423.16 539.449 424.375 539.193 425.586C538.189 425.368 537.195 425.947 536.875 426.903L536.819 427.101C535.979 430.831 534.995 434.507 533.873 438.123C533.547 439.173 534.131 440.288 535.178 440.62C534.794 441.801 534.394 442.974 533.981 444.142C533.014 443.793 531.951 444.236 531.508 445.143L531.427 445.331C530.104 448.915 528.644 452.432 527.054 455.877C526.593 456.875 527.024 458.056 528.017 458.523C527.481 459.643 526.933 460.754 526.37 461.857C525.457 461.385 524.345 461.684 523.787 462.524L523.683 462.7C522.126 465.653 520.47 468.546 518.721 471.374L517.966 472.582C517.379 473.511 517.651 474.737 518.573 475.331C517.896 476.37 517.207 477.401 516.505 478.422C515.661 477.834 514.52 477.986 513.857 478.746L513.73 478.907C511.804 481.628 509.787 484.28 507.683 486.858L506.775 487.959C506.072 488.804 506.183 490.056 507.021 490.765C506.214 491.707 505.397 492.638 504.567 493.56C503.807 492.867 502.655 492.87 501.899 493.537L501.754 493.681C499.492 496.126 497.147 498.494 494.724 500.779L493.681 501.753C492.874 502.499 492.821 503.756 493.56 504.567C492.638 505.397 491.707 506.214 490.765 507.021C490.101 506.235 488.959 506.089 488.123 506.652L487.959 506.774C485.402 508.903 482.77 510.947 480.069 512.899L478.907 513.73C478.01 514.366 477.795 515.604 478.422 516.505C477.401 517.207 476.37 517.896 475.331 518.573C474.774 517.709 473.662 517.415 472.76 517.865L472.582 517.966C469.772 519.742 466.897 521.425 463.962 523.01L462.7 523.683C461.728 524.195 461.353 525.396 461.857 526.37C460.754 526.933 459.643 527.481 458.523 528.017C458.056 527.024 456.875 526.593 455.877 527.054C452.863 528.446 449.793 529.738 446.672 530.925L445.331 531.427C444.3 531.807 443.769 532.949 444.142 533.981C442.974 534.394 441.801 534.794 440.62 535.178C440.288 534.131 439.173 533.547 438.123 533.873C434.959 534.854 431.749 535.73 428.497 536.497L427.101 536.819C426.029 537.061 425.354 538.122 425.586 539.193C424.375 539.449 423.16 539.689 421.938 539.915C421.757 538.903 420.843 538.204 419.837 538.272L419.634 538.297C415.907 538.933 412.131 539.427 408.312 539.773C407.218 539.873 406.41 540.838 406.501 541.932C405.269 542.027 404.032 542.106 402.791 542.171C402.741 541.074 401.816 540.222 400.717 540.265C398.82 540.338 396.915 540.375 395 540.375C393.085 540.375 391.18 540.338 389.283 540.265C388.184 540.222 387.258 541.074 387.208 542.171C385.967 542.106 384.731 542.027 383.498 541.932C383.589 540.838 382.782 539.873 381.688 539.773L380.257 539.637C376.925 539.301 373.627 538.853 370.366 538.297L370.163 538.272C369.157 538.204 368.242 538.903 368.061 539.915C366.839 539.689 365.624 539.449 364.413 539.193C364.645 538.121 363.971 537.061 362.899 536.819C359.169 535.979 355.493 534.995 351.877 533.873C350.826 533.547 349.711 534.131 349.379 535.178C348.198 534.794 347.025 534.394 345.857 533.981C346.23 532.949 345.701 531.807 344.669 531.427C341.085 530.104 337.568 528.644 334.123 527.054L333.933 526.978C332.979 526.649 331.914 527.086 331.476 528.017C330.356 527.481 329.245 526.933 328.142 526.37C328.646 525.396 328.272 524.196 327.3 523.683L326.038 523.009C323.103 521.424 320.228 519.742 317.418 517.966L317.24 517.865C316.338 517.415 315.224 517.709 314.668 518.573C313.629 517.896 312.598 517.207 311.577 516.505C312.204 515.604 311.99 514.366 311.093 513.73C307.983 511.529 304.963 509.209 302.041 506.775L301.877 506.652C301.041 506.089 299.898 506.235 299.234 507.021C298.292 506.214 297.361 505.397 296.439 504.567C297.179 503.756 297.126 502.5 296.319 501.754L295.276 500.779C292.853 498.494 290.509 496.126 288.247 493.681L288.101 493.537C287.344 492.869 286.192 492.867 285.432 493.56C284.602 492.638 283.785 491.707 282.979 490.765C283.817 490.056 283.929 488.804 283.226 487.959L282.318 486.858C280.214 484.28 278.196 481.628 276.27 478.907L276.143 478.746C275.48 477.986 274.338 477.834 273.494 478.422C272.792 477.401 272.103 476.37 271.426 475.331C272.348 474.737 272.622 473.511 272.034 472.582L271.279 471.374C269.53 468.546 267.874 465.653 266.317 462.7C265.804 461.728 264.604 461.353 263.629 461.857C263.066 460.754 262.518 459.643 261.982 458.523C262.975 458.056 263.407 456.875 262.946 455.877C261.356 452.432 259.896 448.915 258.573 445.331L258.492 445.143C258.049 444.236 256.985 443.792 256.018 444.142C255.605 442.974 255.205 441.801 254.821 440.62C255.868 440.288 256.453 439.174 256.127 438.123L255.713 436.764C254.762 433.587 253.916 430.365 253.181 427.101L253.125 426.903C252.805 425.947 251.811 425.368 250.806 425.586C250.55 424.376 250.31 423.16 250.084 421.938C251.164 421.745 251.888 420.717 251.703 419.634C251.067 415.907 250.573 412.131 250.227 408.312L250.197 408.11C250.005 407.12 249.093 406.415 248.067 406.501C247.972 405.269 247.893 404.032 247.828 402.791C248.925 402.741 249.778 401.816 249.735 400.717L249.688 399.293C249.646 397.867 249.625 396.436 249.625 395C249.625 393.564 249.646 392.133 249.688 390.707L249.735 389.283C249.778 388.184 248.925 387.258 247.828 387.208C247.893 385.967 247.972 384.731 248.067 383.498C249.093 383.584 250.005 382.88 250.197 381.89L250.227 381.688C250.53 378.346 250.946 375.037 251.472 371.766L251.703 370.366C251.888 369.283 251.164 368.254 250.084 368.061C250.31 366.839 250.55 365.624 250.806 364.413C251.811 364.631 252.805 364.053 253.125 363.097L253.181 362.899C253.916 359.635 254.762 356.413 255.713 353.236L256.127 351.877C256.453 350.826 255.868 349.711 254.821 349.379C255.205 348.198 255.605 347.025 256.018 345.857C256.986 346.207 258.049 345.764 258.492 344.857L258.573 344.669C259.731 341.533 260.992 338.448 262.355 335.418L262.946 334.123C263.407 333.125 262.975 331.943 261.982 331.476C262.518 330.356 263.066 329.245 263.629 328.142C264.542 328.615 265.655 328.316 266.213 327.476L266.317 327.3C268.096 323.926 270.004 320.629 272.034 317.418C272.622 316.489 272.349 315.262 271.426 314.668C272.103 313.629 272.792 312.598 273.494 311.577C274.338 312.166 275.479 312.014 276.143 311.254L276.27 311.093C278.471 307.983 280.791 304.963 283.225 302.041C283.928 301.196 283.817 299.943 282.979 299.234C283.785 298.292 284.602 297.361 285.432 296.439C286.243 297.179 287.499 297.127 288.246 296.319C290.508 293.874 292.853 291.506 295.276 289.221L296.319 288.247C297.127 287.5 297.179 286.243 296.439 285.432C297.361 284.602 298.292 283.785 299.234 282.979C299.898 283.764 301.04 283.911 301.877 283.348L302.041 283.226C304.598 281.097 307.23 279.053 309.931 277.101L311.093 276.27C311.99 275.634 312.205 274.395 311.577 273.494C312.598 272.792 313.629 272.103 314.668 271.426C315.262 272.349 316.489 272.622 317.418 272.034C320.228 270.258 323.103 268.575 326.038 266.99L327.3 266.317C328.272 265.804 328.647 264.604 328.142 263.629C329.245 263.066 330.356 262.518 331.476 261.982C331.914 262.913 332.979 263.351 333.933 263.022L334.123 262.946C337.137 261.554 340.207 260.262 343.328 259.075L344.669 258.573C345.701 258.192 346.23 257.05 345.857 256.018C347.025 255.605 348.198 255.205 349.379 254.821C349.69 255.803 350.689 256.378 351.679 256.178L351.877 256.127C355.041 255.146 358.251 254.27 361.503 253.503L362.899 253.181C363.972 252.939 364.646 251.878 364.413 250.806C365.624 250.55 366.839 250.31 368.061 250.084C368.242 251.096 369.157 251.796 370.163 251.728L370.366 251.703C373.627 251.147 376.925 250.699 380.257 250.363L381.688 250.227C382.783 250.127 383.59 249.162 383.498 248.067C384.731 247.972 385.967 247.893 387.208 247.828C387.258 248.925 388.184 249.778 389.283 249.735C391.18 249.662 393.085 249.625 395 249.625C396.915 249.625 398.82 249.662 400.717 249.735C401.816 249.778 402.741 248.925 402.791 247.828Z" stroke="white" stroke-opacity="0.64" stroke-width="4" stroke-linecap="round" stroke-linejoin="round" stroke-dasharray="12 8"/>
<path d="M403.162 186.375C404.563 186.429 405.961 186.498 407.354 186.579C407.286 187.677 408.117 188.625 409.216 188.699C413.291 188.976 417.333 189.371 421.339 189.88C422.431 190.019 423.429 189.249 423.573 188.158C424.962 188.348 426.346 188.551 427.726 188.769C427.549 189.855 428.284 190.88 429.37 191.062C433.393 191.735 437.377 192.524 441.318 193.426C442.392 193.671 443.462 193.003 443.712 191.932C445.075 192.257 446.432 192.597 447.784 192.949C447.502 194.012 448.131 195.105 449.194 195.393C453.128 196.458 457.015 197.637 460.852 198.925C461.896 199.275 463.025 198.715 463.38 197.674C464.703 198.132 466.021 198.605 467.332 199.089C466.946 200.119 467.465 201.269 468.494 201.66C472.299 203.107 476.051 204.663 479.745 206.325C480.749 206.777 481.929 206.332 482.385 205.331C483.657 205.918 484.922 206.517 486.18 207.129C485.694 208.116 486.097 209.311 487.082 209.802C490.723 211.616 494.304 213.534 497.819 215.553C498.774 216.101 499.992 215.774 500.544 214.822C501.752 215.531 502.952 216.252 504.145 216.984C503.564 217.919 503.847 219.148 504.78 219.733C508.224 221.895 511.598 224.155 514.901 226.51C515.798 227.149 517.042 226.942 517.685 226.05C518.817 226.874 519.941 227.709 521.057 228.555C520.388 229.428 520.549 230.679 521.42 231.353C524.634 233.839 527.772 236.418 530.831 239.085C531.661 239.809 532.919 239.724 533.646 238.898C534.692 239.829 535.728 240.771 536.756 241.722C536.007 242.526 536.046 243.785 536.847 244.54C539.801 247.326 542.674 250.199 545.46 253.153C546.215 253.954 547.473 253.992 548.277 253.243C549.228 254.271 550.17 255.307 551.101 256.354C550.275 257.08 550.191 258.339 550.915 259.169C553.582 262.228 556.161 265.366 558.647 268.58C559.321 269.451 560.571 269.611 561.444 268.942C562.29 270.058 563.125 271.182 563.949 272.314C563.057 272.957 562.851 274.202 563.49 275.099C565.845 278.402 568.105 281.776 570.267 285.22C570.852 286.153 572.08 286.435 573.015 285.854C573.747 287.047 574.468 288.247 575.177 289.455C574.226 290.008 573.899 291.226 574.447 292.181C576.466 295.696 578.384 299.277 580.198 302.918C580.689 303.903 581.883 304.305 582.87 303.819C583.482 305.077 584.081 306.342 584.668 307.614C583.667 308.071 583.223 309.251 583.675 310.255C585.337 313.949 586.893 317.701 588.34 321.506C588.731 322.535 589.88 323.052 590.91 322.667C591.394 323.978 591.867 325.296 592.325 326.619C591.284 326.974 590.725 328.105 591.075 329.148C592.363 332.985 593.542 336.872 594.607 340.806C594.895 341.868 595.987 342.497 597.05 342.215C597.402 343.567 597.742 344.924 598.067 346.287C596.996 346.538 596.329 347.608 596.574 348.682C597.476 352.623 598.265 356.607 598.938 360.63C599.12 361.716 600.145 362.449 601.23 362.273C601.448 363.653 601.651 365.037 601.841 366.426C600.751 366.57 599.981 367.569 600.12 368.661C600.629 372.667 601.024 376.709 601.301 380.784C601.375 381.882 602.323 382.713 603.42 382.645C603.501 384.038 603.57 385.436 603.624 386.837C602.525 386.874 601.66 387.794 601.692 388.895C601.751 390.922 601.781 392.958 601.781 395C601.781 397.042 601.751 399.078 601.692 401.105C601.66 402.206 602.525 403.125 603.624 403.162C603.57 404.563 603.501 405.961 603.42 407.354C602.323 407.286 601.375 408.118 601.301 409.216C601.059 412.781 600.726 416.322 600.306 419.835L600.12 421.339C599.981 422.431 600.751 423.429 601.841 423.573C601.651 424.962 601.448 426.346 601.23 427.726C600.145 427.55 599.12 428.284 598.938 429.37C598.265 433.393 597.476 437.377 596.574 441.318C596.329 442.392 596.997 443.461 598.067 443.712C597.742 445.075 597.402 446.432 597.05 447.784C595.987 447.502 594.895 448.132 594.607 449.194C593.675 452.636 592.657 456.042 591.554 459.41L591.075 460.852C590.725 461.895 591.285 463.025 592.325 463.38C591.867 464.703 591.394 466.021 590.91 467.332C589.88 466.947 588.731 467.465 588.34 468.494C586.893 472.299 585.337 476.051 583.675 479.745C583.223 480.749 583.668 481.928 584.668 482.385C584.081 483.657 583.482 484.922 582.87 486.18C581.945 485.725 580.838 486.05 580.299 486.904L580.198 487.082C578.611 490.268 576.944 493.408 575.199 496.498L574.447 497.819C573.899 498.774 574.226 499.991 575.177 500.544C574.468 501.752 573.747 502.952 573.015 504.145C572.139 503.601 571.005 503.815 570.384 504.612L570.267 504.78C568.376 507.793 566.409 510.753 564.369 513.659L563.49 514.901C562.851 515.798 563.057 517.042 563.949 517.685C563.125 518.817 562.29 519.941 561.444 521.057C560.571 520.388 559.321 520.549 558.647 521.42C556.161 524.634 553.582 527.772 550.915 530.831C550.192 531.661 550.276 532.918 551.101 533.646C550.17 534.692 549.228 535.728 548.277 536.756C547.524 536.054 546.371 536.044 545.607 536.705L545.46 536.847C543.022 539.432 540.518 541.954 537.951 544.411L536.847 545.46C536.046 546.215 536.007 547.473 536.756 548.277C535.728 549.228 534.692 550.17 533.646 551.101C532.918 550.276 531.661 550.192 530.831 550.915C527.772 553.582 524.634 556.161 521.42 558.647C520.549 559.321 520.388 560.571 521.057 561.444C519.941 562.29 518.817 563.125 517.685 563.949C517.082 563.113 515.952 562.88 515.074 563.38L514.901 563.49C512.011 565.551 509.066 567.539 506.068 569.451L504.78 570.267C503.848 570.852 503.564 572.08 504.145 573.015C502.952 573.747 501.752 574.468 500.544 575.177C500.026 574.286 498.924 573.943 498.002 574.354L497.819 574.447C494.744 576.213 491.618 577.903 488.445 579.513L487.082 580.198C486.097 580.689 485.695 581.883 486.18 582.87C484.922 583.482 483.657 584.081 482.385 584.668C481.928 583.668 480.749 583.223 479.745 583.675C476.051 585.337 472.299 586.893 468.494 588.34C467.465 588.731 466.947 589.88 467.332 590.91C466.021 591.394 464.703 591.867 463.38 592.325C463.047 591.349 462.033 590.797 461.048 591.021L460.852 591.075C457.015 592.363 453.128 593.542 449.194 594.607C448.132 594.895 447.502 595.987 447.784 597.05C446.432 597.402 445.075 597.742 443.712 598.067C443.461 596.997 442.392 596.329 441.318 596.574C437.377 597.476 433.393 598.265 429.37 598.938C428.284 599.12 427.55 600.145 427.726 601.23C426.346 601.448 424.962 601.651 423.573 601.841C423.438 600.819 422.553 600.079 421.543 600.104L421.339 600.12C417.333 600.629 413.291 601.024 409.216 601.301C408.118 601.375 407.286 602.323 407.354 603.42C405.961 603.501 404.563 603.57 403.162 603.624C403.125 602.525 402.206 601.66 401.105 601.692C399.078 601.751 397.042 601.781 395 601.781C392.958 601.781 390.922 601.751 388.895 601.692C387.794 601.66 386.874 602.525 386.837 603.624C385.436 603.57 384.038 603.501 382.645 603.42C382.713 602.323 381.882 601.375 380.784 601.301L379.258 601.191C375.7 600.924 372.167 600.566 368.661 600.12L368.457 600.104C367.447 600.079 366.561 600.819 366.426 601.841C365.037 601.651 363.653 601.448 362.273 601.23C362.449 600.145 361.716 599.12 360.63 598.938L359.123 598.681C355.611 598.066 352.13 597.363 348.682 596.574L348.479 596.538C347.477 596.413 346.522 597.064 346.287 598.067C344.924 597.742 343.567 597.402 342.215 597.05C342.497 595.987 341.868 594.895 340.806 594.607L339.333 594.202C335.902 593.245 332.505 592.202 329.148 591.075C328.105 590.725 326.974 591.284 326.619 592.325C325.296 591.867 323.978 591.394 322.667 590.91C323.052 589.88 322.535 588.731 321.506 588.34L320.081 587.792C316.763 586.502 313.487 585.129 310.255 583.675L310.063 583.6C309.105 583.281 308.042 583.73 307.614 584.668C306.342 584.081 305.077 583.482 303.819 582.87C304.305 581.883 303.903 580.689 302.918 580.198L301.555 579.513C298.382 577.903 295.256 576.213 292.181 574.447L291.998 574.354C291.075 573.942 289.973 574.285 289.455 575.177C288.247 574.468 287.047 573.747 285.854 573.015C286.435 572.08 286.153 570.852 285.22 570.267L283.932 569.451C280.934 567.539 277.989 565.551 275.099 563.49L274.926 563.38C274.048 562.88 272.917 563.113 272.314 563.949C271.182 563.125 270.058 562.29 268.942 561.444C269.611 560.571 269.451 559.321 268.58 558.647L267.378 557.711C264.583 555.515 261.846 553.249 259.169 550.915L259.008 550.789C258.183 550.205 257.035 550.327 256.354 551.101C255.307 550.17 254.271 549.228 253.243 548.277C253.992 547.473 253.954 546.215 253.153 545.46L252.049 544.411C249.482 541.954 246.978 539.432 244.54 536.847C243.785 536.046 242.526 536.007 241.722 536.756C240.771 535.728 239.829 534.692 238.898 533.646C239.724 532.919 239.809 531.661 239.085 530.831L238.089 529.681C235.774 526.987 233.528 524.232 231.353 521.42L231.219 521.265C230.523 520.532 229.373 520.43 228.555 521.057C227.709 519.941 226.874 518.817 226.05 517.685C226.942 517.042 227.149 515.798 226.51 514.901C224.155 511.598 221.895 508.224 219.733 504.78L219.616 504.612C218.995 503.815 217.86 503.6 216.984 504.145C216.252 502.952 215.531 501.752 214.822 500.544C215.774 499.992 216.101 498.774 215.553 497.819C213.534 494.304 211.616 490.723 209.802 487.082C209.311 486.097 208.116 485.694 207.129 486.18C206.517 484.922 205.918 483.657 205.331 482.385C206.332 481.929 206.777 480.749 206.325 479.745C204.663 476.051 203.107 472.299 201.66 468.494L201.577 468.307C201.124 467.404 200.054 466.97 199.089 467.332C198.605 466.021 198.132 464.703 197.674 463.38C198.715 463.025 199.275 461.896 198.925 460.852L198.446 459.41C197.343 456.042 196.325 452.636 195.393 449.194C195.105 448.131 194.012 447.502 192.949 447.784C192.597 446.432 192.257 445.075 191.932 443.712C193.003 443.462 193.671 442.392 193.426 441.318C192.524 437.377 191.735 433.393 191.062 429.37C190.88 428.284 189.854 427.549 188.769 427.726C188.551 426.346 188.348 424.962 188.158 423.573C189.249 423.429 190.019 422.431 189.88 421.339C189.371 417.333 188.976 413.291 188.699 409.216L188.676 409.013C188.506 408.017 187.608 407.29 186.579 407.354C186.498 405.961 186.429 404.563 186.375 403.162C187.475 403.125 188.34 402.207 188.308 401.105L188.269 399.584C188.235 398.06 188.219 396.532 188.219 395C188.219 393.468 188.235 391.94 188.269 390.416L188.308 388.895C188.34 387.793 187.475 386.874 186.375 386.837C186.429 385.436 186.498 384.038 186.579 382.645C187.677 382.713 188.625 381.883 188.699 380.784C188.941 377.219 189.274 373.678 189.694 370.165L189.88 368.661C190.019 367.569 189.249 366.57 188.158 366.426C188.348 365.037 188.551 363.653 188.769 362.273C189.855 362.45 190.88 361.716 191.062 360.63C191.65 357.109 192.328 353.619 193.093 350.161L193.426 348.682C193.671 347.608 193.003 346.537 191.932 346.287C192.257 344.924 192.597 343.567 192.949 342.215C194.012 342.497 195.105 341.869 195.393 340.806C196.325 337.364 197.343 333.958 198.446 330.59L198.925 329.148C199.275 328.104 198.715 326.974 197.674 326.619C198.132 325.296 198.605 323.978 199.089 322.667C200.054 323.029 201.124 322.596 201.577 321.693L201.66 321.506C202.927 318.176 204.276 314.887 205.707 311.643L206.325 310.255C206.777 309.251 206.332 308.07 205.331 307.614C205.918 306.342 206.517 305.077 207.129 303.819C208.054 304.275 209.161 303.95 209.701 303.096L209.802 302.918C211.389 299.732 213.056 296.592 214.801 293.502L215.553 292.181C216.101 291.225 215.774 290.007 214.822 289.455C215.531 288.247 216.252 287.047 216.984 285.854C217.919 286.436 219.148 286.153 219.733 285.22C221.624 282.207 223.591 279.247 225.631 276.341L226.51 275.099C227.149 274.202 226.943 272.957 226.05 272.314C226.874 271.182 227.709 270.058 228.555 268.942C229.373 269.57 230.523 269.468 231.219 268.735L231.353 268.58C233.528 265.768 235.774 263.013 238.089 260.319L239.085 259.169C239.809 258.339 239.724 257.08 238.898 256.354C239.829 255.307 240.771 254.271 241.722 253.243C242.475 253.946 243.629 253.956 244.393 253.295L244.54 253.153C246.978 250.568 249.482 248.046 252.049 245.589L253.153 244.54C253.954 243.785 253.993 242.526 253.243 241.722C254.271 240.771 255.307 239.829 256.354 238.898C257.035 239.673 258.183 239.795 259.008 239.211L259.169 239.085C261.846 236.751 264.583 234.485 267.378 232.289L268.58 231.353C269.451 230.679 269.612 229.428 268.942 228.555C270.058 227.709 271.182 226.874 272.314 226.05C272.917 226.887 274.048 227.121 274.926 226.62L275.099 226.51C278.402 224.155 281.776 221.895 285.22 219.733C286.153 219.148 286.436 217.919 285.854 216.984C287.047 216.252 288.247 215.531 289.455 214.822C289.973 215.714 291.075 216.058 291.998 215.646L292.181 215.553C295.256 213.787 298.382 212.097 301.555 210.487L302.918 209.802C303.903 209.311 304.305 208.116 303.819 207.129C305.077 206.517 306.342 205.918 307.614 205.331C308.042 206.269 309.105 206.719 310.063 206.4L310.255 206.325C313.487 204.871 316.763 203.498 320.081 202.208L321.506 201.66C322.535 201.269 323.053 200.119 322.667 199.089C323.978 198.605 325.296 198.132 326.619 197.674C326.952 198.65 327.966 199.203 328.952 198.979L329.148 198.925C332.505 197.798 335.902 196.755 339.333 195.798L340.806 195.393C341.869 195.105 342.497 194.012 342.215 192.949C343.567 192.597 344.924 192.257 346.287 191.932C346.522 192.936 347.477 193.587 348.479 193.462L348.682 193.426C352.13 192.637 355.611 191.934 359.123 191.319L360.63 191.062C361.716 190.88 362.45 189.855 362.273 188.769C363.653 188.551 365.037 188.348 366.426 188.158C366.561 189.181 367.447 189.921 368.457 189.896L368.661 189.88C372.667 189.371 376.709 188.976 380.784 188.699C381.883 188.625 382.713 187.677 382.645 186.579C384.038 186.498 385.436 186.429 386.837 186.375C386.874 187.475 387.793 188.34 388.895 188.308C390.922 188.249 392.958 188.219 395 188.219C397.042 188.219 399.078 188.249 401.105 188.308C402.207 188.34 403.125 187.475 403.162 186.375Z" stroke="white" stroke-opacity="0.64" stroke-width="4" stroke-linecap="round" stroke-linejoin="round" stroke-dasharray="12 8"/>
<path d="M403.023 51.2178C404.358 51.2483 405.69 51.2873 407.021 51.333C406.98 52.4334 407.837 53.3601 408.938 53.4043C412.93 53.5644 416.905 53.7921 420.86 54.0879C421.959 54.17 422.917 53.3479 423.003 52.25C424.329 52.3569 425.654 52.4709 426.976 52.5928C426.872 53.6894 427.674 54.6639 428.771 54.7715C432.748 55.1614 436.704 55.6196 440.64 56.1445C441.732 56.2903 442.736 55.5243 442.885 54.4326C444.204 54.6164 445.521 54.8081 446.835 55.0068C446.667 56.0955 447.412 57.1148 448.501 57.2861C452.444 57.9058 456.365 58.5934 460.263 59.3467C461.345 59.5559 462.392 58.8497 462.604 57.7686C463.914 58.0297 465.222 58.2973 466.526 58.5732C466.295 59.6508 466.979 60.7137 468.057 60.9482C471.951 61.7959 475.82 62.7094 479.663 63.6885C480.731 63.9605 481.816 63.3172 482.092 62.251C483.387 62.5891 484.68 62.9343 485.97 63.2871C485.676 64.3488 486.298 65.4489 487.359 65.7461C491.196 66.82 495.005 67.9589 498.786 69.1621C499.837 69.4964 500.958 68.9172 501.295 67.8682C502.567 68.2812 503.836 68.7015 505.102 69.1289C504.746 70.1718 505.301 71.3071 506.344 71.666C510.111 72.9631 513.849 74.3242 517.556 75.748C518.584 76.1432 519.737 75.6308 520.136 74.6045C521.379 75.0905 522.619 75.583 523.855 76.083C523.44 77.103 523.928 78.2673 524.947 78.6865C528.633 80.2021 532.286 81.7805 535.905 83.4199C536.909 83.8745 538.09 83.4305 538.548 82.4287C539.759 82.9856 540.966 83.5486 542.169 84.1191C541.694 85.1133 542.113 86.3058 543.106 86.7842C546.697 88.5126 550.253 90.3015 553.772 92.1504C554.748 92.6629 555.953 92.2894 556.469 91.3164C557.646 91.9439 558.82 92.5781 559.989 93.2188C559.458 94.1833 559.807 95.3974 560.771 95.9326C564.251 97.866 567.695 99.8581 571.1 101.908C572.044 102.476 573.268 102.174 573.84 101.232C574.98 101.928 576.116 102.63 577.248 103.339C576.662 104.271 576.939 105.502 577.869 106.093C581.23 108.225 584.553 110.414 587.833 112.659C588.743 113.282 589.984 113.049 590.608 112.142C591.706 112.902 592.799 113.669 593.888 114.442C593.247 115.339 593.452 116.586 594.348 117.229C597.579 119.553 600.769 121.931 603.915 124.363C604.787 125.037 606.038 124.878 606.715 124.009C607.766 124.831 608.812 125.66 609.854 126.494C609.163 127.352 609.296 128.608 610.152 129.302C613.244 131.808 616.291 134.368 619.292 136.979C620.124 137.702 621.383 137.615 622.108 136.787C623.11 137.669 624.107 138.555 625.098 139.448C624.358 140.265 624.418 141.527 625.232 142.27C628.173 144.95 631.068 147.681 633.913 150.461C634.702 151.231 635.964 151.218 636.736 150.433C637.685 151.371 638.629 152.314 639.566 153.263C638.781 154.035 638.769 155.298 639.539 156.087C642.319 158.932 645.051 161.827 647.731 164.768C648.474 165.582 649.734 165.641 650.551 164.902C651.444 165.893 652.331 166.889 653.212 167.891C652.384 168.616 652.299 169.876 653.022 170.708C655.633 173.709 658.192 176.756 660.698 179.848C661.392 180.704 662.647 180.836 663.505 180.146C664.339 181.187 665.168 182.233 665.99 183.284C665.122 183.961 664.963 185.213 665.637 186.085C668.069 189.231 670.447 192.421 672.771 195.652C673.414 196.548 674.66 196.752 675.557 196.111C676.33 197.2 677.097 198.293 677.857 199.391C676.95 200.015 676.719 201.257 677.341 202.167C679.586 205.447 681.775 208.77 683.907 212.131C684.498 213.061 685.728 213.337 686.66 212.751C687.369 213.883 688.071 215.019 688.767 216.159C687.826 216.731 687.524 217.956 688.092 218.9C690.142 222.305 692.134 225.749 694.067 229.229C694.602 230.193 695.816 230.541 696.78 230.01C697.421 231.179 698.055 232.353 698.683 233.53C697.71 234.046 697.337 235.252 697.85 236.228C699.699 239.747 701.487 243.303 703.216 246.894C703.694 247.887 704.886 248.305 705.88 247.83C706.45 249.033 707.013 250.24 707.57 251.451C706.569 251.909 706.126 253.091 706.58 254.095C708.219 257.714 709.798 261.367 711.313 265.053C711.733 266.072 712.896 266.559 713.916 266.144C714.416 267.38 714.909 268.62 715.395 269.863C714.369 270.262 713.857 271.416 714.252 272.444C715.676 276.151 717.037 279.889 718.334 283.656C718.693 284.699 719.827 285.253 720.87 284.897C721.298 286.163 721.718 287.432 722.131 288.704C721.082 289.042 720.504 290.163 720.838 291.214C722.041 294.995 723.18 298.804 724.254 302.641C724.551 303.702 725.65 304.322 726.712 304.029C727.065 305.319 727.41 306.612 727.748 307.907C726.682 308.183 726.04 309.269 726.312 310.337C727.291 314.18 728.204 318.049 729.052 321.943C729.286 323.021 730.348 323.704 731.426 323.473C731.702 324.777 731.969 326.085 732.23 327.395C731.15 327.607 730.444 328.655 730.653 329.737C731.407 333.635 732.094 337.556 732.714 341.499C732.885 342.588 733.904 343.331 734.992 343.164C735.191 344.478 735.383 345.795 735.566 347.114C734.475 347.264 733.71 348.268 733.855 349.36C734.38 353.296 734.839 357.252 735.229 361.229C735.336 362.325 736.31 363.127 737.406 363.023C737.528 364.345 737.642 365.67 737.749 366.996C736.651 367.082 735.83 368.041 735.912 369.14C736.208 373.095 736.436 377.07 736.596 381.062C736.64 382.162 737.566 383.018 738.666 382.979C738.712 384.309 738.751 385.641 738.781 386.976C737.68 386.999 736.804 387.908 736.823 389.01C736.857 391.002 736.875 392.999 736.875 395C736.875 397.001 736.857 398.998 736.823 400.99C736.804 402.092 737.68 403 738.781 403.023C738.751 404.358 738.712 405.69 738.666 407.021C737.566 406.981 736.64 407.838 736.596 408.938C736.436 412.93 736.208 416.905 735.912 420.86C735.83 421.959 736.652 422.917 737.749 423.003C737.642 424.329 737.528 425.654 737.406 426.976C736.31 426.872 735.336 427.675 735.229 428.771C734.839 432.748 734.38 436.704 733.855 440.64C733.71 441.732 734.475 442.735 735.566 442.885C735.383 444.204 735.191 445.521 734.992 446.835C733.904 446.668 732.885 447.412 732.714 448.501C732.094 452.444 731.407 456.365 730.653 460.263C730.444 461.345 731.15 462.392 732.23 462.604C731.969 463.914 731.702 465.222 731.426 466.526C730.416 466.31 729.42 466.897 729.105 467.858L729.052 468.057C728.416 470.977 727.743 473.883 727.033 476.775L726.312 479.663C726.04 480.731 726.682 481.816 727.748 482.092C727.41 483.387 727.065 484.68 726.712 485.97C725.717 485.695 724.689 486.224 724.319 487.165L724.254 487.359C723.448 490.237 722.607 493.099 721.729 495.945L720.838 498.786C720.504 499.837 721.082 500.957 722.131 501.295C721.718 502.567 721.298 503.836 720.87 505.102C719.827 504.746 718.693 505.301 718.334 506.344C717.037 510.111 715.676 513.849 714.252 517.556C713.857 518.584 714.369 519.737 715.395 520.136C714.909 521.379 714.416 522.619 713.916 523.855C712.96 523.467 711.877 523.87 711.4 524.762L711.313 524.947C710.177 527.711 709.004 530.457 707.798 533.184L706.58 535.905C706.126 536.909 706.569 538.09 707.57 538.548C707.013 539.759 706.45 540.966 705.88 542.169C704.886 541.694 703.694 542.113 703.216 543.106C701.919 545.799 700.589 548.473 699.225 551.126L697.85 553.772C697.337 554.748 697.71 555.953 698.683 556.469C698.055 557.646 697.421 558.82 696.78 559.989C695.816 559.459 694.602 559.807 694.067 560.771C692.617 563.381 691.135 565.97 689.619 568.538L688.092 571.1C687.524 572.043 687.826 573.268 688.767 573.84C688.071 574.98 687.369 576.116 686.66 577.248C685.787 576.699 684.65 576.908 684.025 577.702L683.907 577.869C682.308 580.39 680.677 582.889 679.015 585.364L677.341 587.833C676.719 588.743 676.95 589.984 677.857 590.608C677.097 591.706 676.33 592.799 675.557 593.888C674.66 593.248 673.414 593.453 672.771 594.348C671.028 596.771 669.255 599.172 667.451 601.548L665.637 603.915C664.963 604.787 665.122 606.038 665.99 606.715C665.168 607.766 664.339 608.812 663.505 609.854C662.647 609.164 661.392 609.297 660.698 610.152C658.819 612.471 656.909 614.765 654.971 617.032L653.021 619.292C652.299 620.123 652.384 621.383 653.212 622.108C652.33 623.11 651.444 624.107 650.551 625.098C649.734 624.359 648.473 624.418 647.73 625.232C645.72 627.438 643.682 629.617 641.615 631.77L639.539 633.913C638.769 634.701 638.781 635.964 639.566 636.736C638.629 637.685 637.685 638.629 636.736 639.566C636.012 638.831 634.858 638.773 634.066 639.403L633.913 639.539C631.779 641.624 629.618 643.682 627.43 645.711L625.232 647.731C624.418 648.474 624.358 649.734 625.097 650.551C624.106 651.444 623.11 652.331 622.108 653.212C621.428 652.436 620.278 652.312 619.452 652.896L619.292 653.022C616.291 655.633 613.244 658.192 610.152 660.698C609.297 661.392 609.164 662.647 609.854 663.505C608.812 664.339 607.766 665.168 606.715 665.99C606.08 665.176 604.941 664.986 604.083 665.521L603.915 665.637C600.769 668.069 597.579 670.447 594.348 672.771C593.453 673.414 593.248 674.66 593.888 675.557C592.799 676.33 591.706 677.097 590.608 677.857C590.022 677.007 588.895 676.75 588.007 677.234L587.833 677.341C585.373 679.024 582.889 680.677 580.383 682.298L577.869 683.907C576.939 684.497 576.662 685.728 577.248 686.66C576.116 687.369 574.98 688.071 573.84 688.767C573.304 687.885 572.194 687.564 571.279 687.995L571.1 688.092C567.695 690.142 564.251 692.134 560.771 694.067C559.807 694.602 559.459 695.816 559.989 696.78C558.82 697.421 557.646 698.055 556.469 698.683C555.985 697.771 554.896 697.386 553.958 697.764L553.772 697.85C550.253 699.699 546.697 701.487 543.106 703.216C542.113 703.694 541.694 704.886 542.169 705.88C540.966 706.45 539.759 707.013 538.548 707.57C538.119 706.632 537.054 706.183 536.096 706.505L535.905 706.58C533.191 707.81 530.457 709.005 527.705 710.165L524.947 711.313C523.928 711.733 523.441 712.896 523.855 713.916C522.619 714.416 521.379 714.909 520.136 715.395C519.737 714.369 518.584 713.857 517.556 714.252C513.849 715.676 510.111 717.037 506.344 718.334C505.301 718.693 504.746 719.827 505.102 720.87C503.836 721.298 502.567 721.718 501.295 722.131C500.979 721.148 499.974 720.578 498.984 720.785L498.786 720.838C495.95 721.74 493.099 722.607 490.231 723.437L487.359 724.254C486.298 724.551 485.677 725.651 485.97 726.712C484.68 727.065 483.387 727.41 482.092 727.748C481.833 726.749 480.863 726.121 479.863 726.271L479.663 726.312C476.781 727.046 473.884 727.744 470.973 728.404L468.057 729.052C466.979 729.286 466.295 730.349 466.526 731.426C465.222 731.702 463.914 731.969 462.604 732.23C462.392 731.15 461.345 730.444 460.263 730.653C456.365 731.407 452.444 732.094 448.501 732.714C447.413 732.885 446.668 733.904 446.835 734.992C445.521 735.191 444.204 735.383 442.885 735.566C442.735 734.475 441.732 733.71 440.64 733.855C436.704 734.38 432.748 734.839 428.771 735.229C427.675 735.336 426.872 736.31 426.976 737.406C425.654 737.528 424.329 737.642 423.003 737.749C422.917 736.652 421.959 735.83 420.86 735.912C416.905 736.208 412.93 736.436 408.938 736.596C407.838 736.64 406.981 737.566 407.021 738.666C405.69 738.712 404.358 738.751 403.023 738.781C403 737.68 402.092 736.804 400.99 736.823C398.998 736.857 397.001 736.875 395 736.875C392.999 736.875 391.002 736.857 389.01 736.823C387.908 736.804 386.999 737.68 386.976 738.781C385.641 738.751 384.309 738.712 382.979 738.666C383.018 737.566 382.162 736.64 381.062 736.596L378.071 736.463C375.084 736.317 372.106 736.134 369.14 735.912L368.936 735.907C367.925 735.934 367.077 736.72 366.996 737.749C365.67 737.642 364.345 737.528 363.023 737.406C363.127 736.31 362.325 735.336 361.229 735.229L358.25 734.923C355.275 734.605 352.312 734.249 349.36 733.855L349.156 733.839C348.145 733.807 347.254 734.544 347.114 735.566C345.795 735.383 344.478 735.191 343.164 734.992C343.331 733.904 342.588 732.885 341.499 732.714L338.546 732.236C335.597 731.746 332.66 731.218 329.737 730.653L329.534 730.625C328.527 730.534 327.594 731.218 327.395 732.23C326.085 731.969 324.777 731.702 323.473 731.426C323.704 730.348 323.021 729.286 321.943 729.052C318.049 728.204 314.18 727.291 310.337 726.312L310.137 726.271C309.137 726.121 308.166 726.749 307.907 727.748C306.612 727.41 305.319 727.065 304.029 726.712C304.322 725.65 303.702 724.551 302.641 724.254C298.804 723.18 294.995 722.041 291.214 720.838L291.016 720.785C290.026 720.578 289.02 721.148 288.704 722.131C287.432 721.718 286.163 721.298 284.897 720.87C285.253 719.827 284.699 718.693 283.656 718.334L280.836 717.35C278.022 716.353 275.224 715.32 272.444 714.252L272.249 714.188C271.274 713.923 270.237 714.433 269.863 715.395C268.62 714.909 267.38 714.416 266.144 713.916C266.559 712.896 266.072 711.733 265.053 711.313L262.295 710.165C259.543 709.005 256.809 707.81 254.095 706.58L253.904 706.505C252.946 706.183 251.88 706.632 251.451 707.57C250.24 707.013 249.033 706.45 247.83 705.88C248.305 704.886 247.887 703.694 246.894 703.216L244.207 701.908C241.527 700.589 238.867 699.236 236.228 697.85L236.042 697.764C235.104 697.386 234.014 697.771 233.53 698.683C232.353 698.055 231.179 697.421 230.01 696.78C230.541 695.816 230.193 694.602 229.229 694.067L226.626 692.606C224.03 691.134 221.454 689.629 218.9 688.092C217.956 687.524 216.731 687.826 216.159 688.767C215.019 688.071 213.883 687.369 212.751 686.66C213.337 685.728 213.061 684.498 212.131 683.907L209.617 682.298C207.111 680.677 204.627 679.024 202.167 677.341C201.257 676.718 200.015 676.95 199.391 677.857C198.293 677.097 197.2 676.33 196.111 675.557C196.752 674.66 196.548 673.414 195.652 672.771L193.236 671.018C190.829 669.255 188.444 667.461 186.085 665.637C185.213 664.963 183.961 665.122 183.284 665.99C182.233 665.168 181.187 664.339 180.146 663.505C180.836 662.647 180.703 661.392 179.848 660.698L177.537 658.809C175.235 656.909 172.959 654.98 170.708 653.021C169.876 652.298 168.616 652.384 167.891 653.212C166.889 652.33 165.892 651.444 164.901 650.551C165.641 649.734 165.582 648.473 164.768 647.73L162.57 645.711C160.382 643.682 158.221 641.624 156.087 639.539L155.934 639.403C155.142 638.773 153.987 638.83 153.263 639.566C152.314 638.629 151.371 637.685 150.433 636.736C151.218 635.964 151.231 634.702 150.461 633.913L148.385 631.77C146.318 629.617 144.279 627.438 142.269 625.232C141.526 624.418 140.265 624.358 139.448 625.097C138.555 624.106 137.668 623.11 136.787 622.108C137.615 621.383 137.701 620.124 136.978 619.292L135.029 617.032C133.091 614.765 131.181 612.471 129.302 610.152L129.165 610C128.452 609.283 127.298 609.207 126.494 609.854C125.66 608.812 124.831 607.766 124.009 606.715C124.877 606.038 125.037 604.787 124.363 603.915L122.549 601.547C120.745 599.171 118.972 596.771 117.229 594.348L117.102 594.188C116.431 593.43 115.283 593.287 114.442 593.888C113.669 592.799 112.902 591.706 112.142 590.608C113.049 589.984 113.282 588.743 112.659 587.833L110.985 585.364C109.323 582.889 107.692 580.39 106.093 577.869C105.502 576.939 104.271 576.662 103.339 577.248C102.63 576.116 101.928 574.98 101.232 573.84C102.174 573.268 102.476 572.044 101.908 571.1L100.381 568.538C98.8651 565.97 97.3826 563.381 95.9326 560.771L95.8242 560.597C95.2464 559.767 94.1229 559.491 93.2188 559.989C92.5781 558.82 91.9438 557.646 91.3164 556.469C92.2894 555.953 92.6629 554.748 92.1504 553.772L90.7754 551.126C89.4111 548.473 88.0806 545.799 86.7842 543.106L86.6855 542.927C86.1567 542.064 85.051 541.724 84.1191 542.169C83.5486 540.966 82.9856 539.759 82.4287 538.548C83.4306 538.09 83.8745 536.909 83.4199 535.905L82.2021 533.184C80.9957 530.457 79.8232 527.711 78.6865 524.947L78.5996 524.762C78.1224 523.87 77.0391 523.466 76.083 523.855C75.583 522.619 75.0905 521.379 74.6045 520.136C75.6308 519.737 76.1432 518.584 75.748 517.556L74.6914 514.771C73.6471 511.979 72.6389 509.17 71.666 506.344L71.5889 506.154C71.1646 505.236 70.1066 504.768 69.1289 505.102C68.7015 503.836 68.2812 502.567 67.8682 501.295C68.9172 500.958 69.4964 499.837 69.1621 498.786L68.2715 495.945C67.3931 493.099 66.5516 490.237 65.7461 487.359L65.6807 487.165C65.311 486.223 64.2823 485.695 63.2871 485.97C62.9343 484.68 62.5891 483.387 62.251 482.092C63.3172 481.816 63.9605 480.731 63.6885 479.663L62.9668 476.775C62.257 473.883 61.5839 470.977 60.9482 468.057L60.8945 467.858C60.5804 466.896 59.5833 466.309 58.5732 466.526C58.2973 465.222 58.0297 463.914 57.7686 462.604C58.8497 462.392 59.5559 461.345 59.3467 460.263C58.5934 456.365 57.9058 452.444 57.2861 448.501C57.1148 447.412 56.0954 446.667 55.0068 446.835C54.8081 445.521 54.6164 444.204 54.4326 442.885C55.5243 442.736 56.2903 441.732 56.1445 440.64C55.6196 436.704 55.1614 432.748 54.7715 428.771L54.7412 428.569C54.5414 427.578 53.6208 426.878 52.5928 426.976C52.4709 425.654 52.3569 424.329 52.25 423.003C53.348 422.917 54.1701 421.959 54.0879 420.86L53.8789 417.891C53.6823 414.917 53.5243 411.933 53.4043 408.938L53.3857 408.734C53.2432 407.733 52.3643 406.983 51.333 407.021C51.2873 405.69 51.2483 404.358 51.2178 403.023C52.319 403.001 53.1957 402.092 53.1768 400.99L53.1377 397.998C53.1291 397 53.125 396 53.125 395C53.125 394 53.1291 393 53.1377 392.002L53.1768 389.01C53.1957 387.908 52.319 386.998 51.2178 386.976C51.2483 385.641 51.2873 384.309 51.333 382.979C52.3644 383.016 53.2433 382.267 53.3857 381.266L53.4043 381.062C53.5644 377.07 53.7921 373.095 54.0879 369.14C54.17 368.041 53.348 367.082 52.25 366.996C52.3569 365.67 52.4709 364.345 52.5928 363.023C53.6894 363.127 54.6639 362.326 54.7715 361.229C55.0639 358.246 55.3951 355.275 55.7637 352.315L56.1445 349.36C56.2903 348.267 55.5243 347.263 54.4326 347.114C54.6164 345.795 54.8081 344.478 55.0068 343.164C56.0275 343.321 56.9879 342.678 57.2451 341.699L57.2861 341.499C57.7509 338.542 58.2539 335.597 58.7939 332.665L59.3467 329.737C59.5559 328.655 58.8498 327.607 57.7686 327.395C58.0297 326.085 58.2973 324.777 58.5732 323.473C59.5834 323.69 60.5804 323.104 60.8945 322.142L60.9482 321.943C61.7959 318.049 62.7094 314.18 63.6885 310.337C63.9605 309.269 63.3173 308.183 62.251 307.907C62.5891 306.612 62.9343 305.319 63.2871 304.029C64.2824 304.305 65.311 303.777 65.6807 302.835L65.7461 302.641C66.82 298.804 67.9589 294.995 69.1621 291.214C69.4965 290.163 68.9173 289.041 67.8682 288.704C68.2812 287.432 68.7015 286.163 69.1289 284.897C70.1066 285.231 71.1645 284.764 71.5889 283.846L71.666 283.656C72.6389 280.83 73.6471 278.021 74.6914 275.229L75.748 272.444C76.1433 271.415 75.6311 270.262 74.6045 269.863C75.0905 268.62 75.583 267.38 76.083 266.144C77.1031 266.559 78.2673 266.072 78.6865 265.053C80.2021 261.367 81.7805 257.714 83.4199 254.095C83.8745 253.091 83.4308 251.909 82.4287 251.451C82.9856 250.24 83.5486 249.033 84.1191 247.83C85.0511 248.276 86.1566 247.936 86.6855 247.073L86.7842 246.894C88.5126 243.303 90.3015 239.747 92.1504 236.228C92.6629 235.252 92.2897 234.046 91.3164 233.53C91.9439 232.353 92.5781 231.179 93.2188 230.01C94.123 230.508 95.2463 230.233 95.8242 229.403L95.9326 229.229C97.3826 226.619 98.8651 224.03 100.381 221.462L101.908 218.9C102.477 217.956 102.174 216.73 101.232 216.159C101.928 215.019 102.63 213.883 103.339 212.751C104.213 213.301 105.349 213.093 105.975 212.298L106.093 212.131C107.692 209.61 109.323 207.111 110.985 204.636L112.659 202.167C113.282 201.257 113.05 200.015 112.142 199.391C112.902 198.293 113.669 197.2 114.442 196.111C115.283 196.712 116.431 196.57 117.102 195.812L117.229 195.652C118.972 193.229 120.745 190.828 122.549 188.452L124.363 186.085C125.037 185.213 124.878 183.961 124.009 183.284C124.831 182.233 125.66 181.187 126.494 180.146C127.298 180.793 128.452 180.717 129.165 180L129.302 179.848C131.181 177.529 133.091 175.235 135.029 172.968L136.979 170.708C137.702 169.876 137.616 168.616 136.787 167.891C137.669 166.889 138.555 165.892 139.448 164.901C140.214 165.595 141.37 165.586 142.124 164.911L142.27 164.768C144.95 161.827 147.681 158.932 150.461 156.087C151.232 155.298 151.219 154.035 150.433 153.263C151.371 152.314 152.314 151.371 153.263 150.433C154.035 151.219 155.298 151.232 156.087 150.461C158.221 148.376 160.382 146.318 162.57 144.289L164.768 142.269C165.582 141.526 165.642 140.265 164.902 139.448C165.893 138.555 166.889 137.668 167.891 136.787C168.616 137.616 169.876 137.701 170.708 136.978C172.959 135.02 175.235 133.091 177.537 131.191L179.848 129.302C180.704 128.608 180.836 127.352 180.146 126.494C181.187 125.66 182.233 124.831 183.284 124.009C183.918 124.824 185.058 125.014 185.917 124.479L186.085 124.363C188.444 122.539 190.828 120.745 193.236 118.981L195.652 117.229C196.548 116.586 196.752 115.339 196.111 114.442C197.2 113.669 198.293 112.902 199.391 112.142C199.976 112.993 201.104 113.25 201.993 112.766L202.167 112.659C204.627 110.976 207.111 109.323 209.617 107.702L212.131 106.093C213.062 105.502 213.338 104.271 212.751 103.339C213.883 102.63 215.019 101.928 216.159 101.232C216.695 102.115 217.806 102.437 218.721 102.005L218.9 101.908C221.454 100.371 224.03 98.8657 226.626 97.3936L229.229 95.9326C230.193 95.3974 230.541 94.1834 230.01 93.2188C231.179 92.578 232.353 91.9439 233.53 91.3164C234.046 92.2897 235.252 92.6629 236.228 92.1504C238.867 90.7637 241.527 89.4109 244.207 88.0918L246.894 86.7842C247.887 86.3058 248.306 85.1134 247.83 84.1191C249.033 83.5486 250.24 82.9856 251.451 82.4287C251.909 83.4308 253.091 83.8746 254.095 83.4199C257.714 81.7805 261.367 80.2021 265.053 78.6865C266.072 78.2673 266.559 77.1031 266.144 76.083C267.38 75.583 268.62 75.0905 269.863 74.6045C270.237 75.5669 271.274 76.0772 272.25 75.8115L272.444 75.748C275.224 74.6802 278.022 73.6472 280.836 72.6504L283.656 71.666C284.699 71.307 285.253 70.1719 284.897 69.1289C286.163 68.7015 287.432 68.2812 288.704 67.8682C289.041 68.9173 290.163 69.4965 291.214 69.1621C294.05 68.2597 296.901 67.3934 299.769 66.5635L302.641 65.7461C303.702 65.4489 304.323 64.3489 304.029 63.2871C305.319 62.9343 306.612 62.5891 307.907 62.251C308.183 63.3173 309.269 63.9605 310.337 63.6885C313.219 62.9542 316.116 62.2562 319.027 61.5957L321.943 60.9482C323.021 60.7136 323.705 59.6509 323.473 58.5732C324.777 58.2973 326.085 58.0297 327.395 57.7686C327.593 58.782 328.527 59.4656 329.534 59.375L329.737 59.3467C332.66 58.7817 335.596 58.2536 338.545 57.7637L341.499 57.2861C342.588 57.1148 343.332 56.0955 343.164 55.0068C344.478 54.8081 345.795 54.6164 347.114 54.4326C347.254 55.456 348.145 56.193 349.156 56.1611L349.36 56.1445C353.296 55.6196 357.252 55.1614 361.229 54.7715C362.326 54.6639 363.127 53.6894 363.023 52.5928C364.345 52.4709 365.67 52.3569 366.996 52.25C367.082 53.348 368.04 54.1701 369.14 54.0879C372.106 53.8661 375.083 53.6828 378.07 53.5371L381.062 53.4043C382.163 53.3601 383.019 52.4333 382.979 51.333C384.309 51.2873 385.641 51.2483 386.976 51.2178C386.998 52.319 387.908 53.1957 389.01 53.1768C391.002 53.1425 392.999 53.125 395 53.125C397.001 53.125 398.998 53.1425 400.99 53.1768C402.092 53.1957 403.001 52.319 403.023 51.2178Z" stroke="white" stroke-opacity="0.64" stroke-width="4" stroke-linecap="round" stroke-linejoin="round" stroke-dasharray="12 8"/>
</g>
<rect x="2" y="2" width="786" height="786" rx="50" stroke="white" stroke-opacity="0.64" stroke-width="4" stroke-linecap="round" stroke-linejoin="round" stroke-dasharray="12 8"/>
<defs>
<clipPath id="clip0_2_651">
<rect x="2" y="2" width="786" height="786" rx="50" fill="white"/>
</clipPath>
</defs>
</svg>
